<svg xmlns="http://www.w3.org/2000/svg" viewBox="0 0 1110.8 212.31"><defs><style>.cls-1{font-size:161.62px;letter-spacing:-0.02em;}.cls-1,.cls-3{fill:#f7931e;font-family:PlantagenetCherokee, Plantagenet Cherokee;}.cls-2{letter-spacing:0em;}.cls-3{font-size:168.1px;}.cls-4{letter-spacing:-0.02em;}.cls-5{fill:#fff;}.cls-6{stroke:#000;stroke-miterlimit:10;stroke-width:2px;}</style></defs><g id="Layer_2" data-name="Layer 2"><g id="Layer_1-2" data-name="Layer 1"><text class="cls-1" transform="translate(238.79 159.66) scale(0.98 1)">M<tspan class="cls-2" x="142.72" y="0">astery</tspan></text><text class="cls-3" transform="translate(800.17 159.36) scale(0.94 1)"><tspan class="cls-4">P</tspan><tspan x="91.78" y="0">ath</tspan></text><rect class="cls-5" x="6.87" width="210.14" height="210.14" rx="43.92"/><path d="M0,144.3v.33c0-.1,0-.2,0-.3Z"/><ellipse class="cls-6" cx="121.35" cy="42.59" rx="24.78" ry="24.83"/><ellipse class="cls-6" cx="171.22" cy="107.38" rx="24.78" ry="24.83"/><ellipse class="cls-6" cx="121.35" cy="172.18" rx="24.78" ry="24.83"/><path d="M48.15,86.82a191.77,191.77,0,0,0,50.92-31"/><path d="M48.55,88.27a194.2,194.2,0,0,0,41.1-23.14q5.37-4,10.48-8.3c1.47-1.25-.66-3.36-2.12-2.12A191.57,191.57,0,0,1,59.62,80c-3.89,1.93-7.85,3.74-11.86,5.4-1.76.73-1,3.63.79,2.89Z"/><path d="M58.72,108.87h86.13"/><path d="M58.72,110.37h86.13a1.5,1.5,0,0,0,0-3H58.72a1.5,1.5,0,0,0,0,3Z"/><path d="M42.25,131c4.5-.95,9.12.63,13.42,2.25a420.73,420.73,0,0,1,47.38,21.28"/><path d="M42.65,132.4c4.09-.79,8.18.59,12,2s7.85,3,11.74,4.61q11.73,4.8,23.15,10.33,6.45,3.1,12.78,6.43c1.71.9,3.22-1.69,1.51-2.59a424.5,424.5,0,0,0-47.95-21.51c-4.51-1.69-9.17-3.1-14-2.16-1.9.36-1.09,3.26.8,2.89Z"/><path class="cls-6" d="M60.41,107.37c0-18.12-22.34-33.46-53.08-38.54v77.09C38.07,140.83,60.41,125.5,60.41,107.37Z"/></g></g></svg>