<svg xmlns="http://www.w3.org/2000/svg" viewBox="0 0 1064.49 209.55"><defs><style>.cls-1{fill:#1a1a1a;}.cls-2{fill:#fff;}.cls-3{font-size:161.62px;letter-spacing:-0.02em;}.cls-3,.cls-5{fill:#f7931e;font-family:PlantagenetCherokee, Plantagenet Cherokee;}.cls-4{letter-spacing:0em;}.cls-5{font-size:168.1px;}.cls-6{letter-spacing:-0.02em;}</style></defs><g id="Layer_2" data-name="Layer 2"><g id="Layer_1-2" data-name="Layer 1"><rect class="cls-1" width="176" height="176" rx="43.92"/><path class="cls-2" d="M62.55,78.94l.12-1.67.57.51.25-.13.41,2.71.17.12.73-1.4.33,1.49c-.24-4.39-1.76-8.69-1.23-13.12a38.53,38.53,0,0,0,1.81,11.77c.06-.82.16-1.5.14-2.19a15.25,15.25,0,0,1-.06-2l.59,3.39.28,0L66.5,76.2l.15,0,.25.47.24,0-.36-2.69-.4.72c.14-1.06.28-2.12.41-3.18l.14,0,.46,2.74,0,0V64.38h.29c0,1.25-.08,2.49-.07,3.74A24.12,24.12,0,0,0,68,71.9V59.73a2.81,2.81,0,0,0-1.47,2.32l-.1-.33c-1.56.78-2,2.15-2.36,3.68l0-1.23-.13,0-.37,1.14-.71-.12A17.43,17.43,0,0,0,62.1,68c-.17,2.1-.19,4.21-.25,6.32,0,.4,0,.81.07,1.22h-.35c0-.72-.12-1.45-.11-2.17,0-2,.09-4.06.2-6.09a8.89,8.89,0,0,1,2.2-5.1c1.53-1.91,3-3.82,4.78-5.67l.07,1.91.63-1,.17.08-.86,6.57H68.6l0-2.86-.25,0a19.24,19.24,0,0,0-.16,2.27c.12,3.11.25,6.23.45,9.34,0,.56,0,1.27.82,1.63A23.48,23.48,0,0,1,69.21,62l.06.08.6-3.57c.08,2.47-.73,4.87-.14,7.36l.34-4.65.25,0-.71,9.57.22,0L70,69.65l.49,4.65.82.36c-.21-.89-.43-1.77-.62-2.66a1.88,1.88,0,0,1,0-.71c.12-.72.27-1.44.41-2.16l-.28-.06-.32.63-.12,0,.31-4.27.81,4.65c1.25-1,0-2.44.84-3.34l.61,4.13.26-.65.19.41c.05-.11.11-.18.1-.25-.15-1.3-.33-2.6-.45-3.9a3.61,3.61,0,0,1,.21-1.61l.29.59h.22l.3-4.11.21,0-.16,2.12.19,0,.17-2.3h.18l-.09,6.46h0l1.14-8.1h.13l-.53,7.12c.21-.19.26-.22.27-.26l.56-2.59,0,.7.2,0L76.88,58c.23,3.07,0,6,1,8.82l-.71-6.22h.17l.4,2.36H78l-.22-2.68h.15l.73,6.22h.22l-.31-4.23h.19l.46,4.64h.1l-.07-5.63h.1l.33,2.12h.18c-.11-.82-.23-1.64-.31-2.46-.34-3.5-.71-7-1-10.52-.07-.82.21-1.66.17-2.52l-.16,1-.14,0,.36-2.62c.83,1.27.2,2.57.18,4l.19-1.07.23,0a14.94,14.94,0,0,0,.15,6.94c.43,2.08.92,4.15,1.38,6.22l.19,0-.34-3.52.22,0,.38,1.43.16,0L81,55.88h.15l.52,2.81.16,0-.24-2.38h.14l.62,3.62.25-.64.27,1.29c-.11-2.63-.21-5.17-.31-7.7a6.8,6.8,0,0,1,.63,2.91,4.81,4.81,0,0,0,.53,2.4c.07.2.17.4.31.75.87-3.58-.63-7-.15-10.24l.9,7.2.44,0L85,53.79l.91,1.55.26-.11-.59-1.94.29,0L87.15,56l.14,0-.75-3.14c1.23.55.88,1.71,1.59,2.33a32.76,32.76,0,0,0-2.37-7.53l-.05-.32c.13-1.47.22-2.94.43-4.4,0-.31.51-.55.78-.83-.41,1.59-1,3.21-.38,4.83.89,2.22,2,4.37,2.95,6.56a1.22,1.22,0,0,0,.08-.85q-.76-2.55-1.58-5.07a7.64,7.64,0,0,1-.36-4.74L88,45.87h.45l.24-3.28c.2,1.31.1,2.61.24,3.89a36.23,36.23,0,0,0,.81,3.77l.24,0,.43-1.27.44,2.13.21,0-.31-2.52,1,3.14.26,0c0-1.5-.23-3-.17-4.5h.34l1,3.41c.53-.79,1.07-1.41.84-2.29-.13-.51-.3-1-.42-1.54-.25-1.06-.47-2.13-.71-3.19H93l1.39,5,.23,0V46.29l.34,0-.38,5.15.36,0c.49-1.59.24-3.24.4-4.88l.19,3.92h.06l.22-3h.09L96.18,49h.14l.19-2.56.32.79.37-.6.12.06L97.07,48l.25,0,.29-3.88.63,1.56.13,0-.4-3,.18,0,.44,1.2.31,0c-.14-1.47-.29-2.94-.43-4.3,1,1.49.7,3.21.65,4.86l.18-.61.1,0,.13,2.55h.11V43.78l.32.56L101,42l-.32,2.33.19,0,.55-3.41h.1l-.19,2.52.28,0,.32-4.35.22,0,.19,3.46h.06l.41-2.54.21,0,.16,3.14.88-3,.21,0,.07.76h.1l.61-3.76h.07l-.24,3.24.12,0,.53-3.12.13,0-.31,4.19,1.08-5.75.28,0,0,3.6h0l.54-2.85.24,1.87.44-.75.23,0,.62,2.09.7-3.25.11,2.12h.23l0-2.07.36.9,1.57-2.23-.3,2.19h.08l.2-.82.18,0v1.11l.17,0,1-1.81.25.79.14-.76.36.54-.24-2,.38.53.44-1.21.15.64.81-1.82.75.68.86-.5.13.18.44-1,.42.95c1.37.13,1.65-.87,2.18-1.65l.6.29c.21-.37.41-.73.69-1.26l.52,1.18.76-1.17.48.76.39-.47.52.44L124,30.9a7.25,7.25,0,0,0,1.44-.84,1,1,0,0,1,1.26-.21l-.61.86a2.39,2.39,0,0,0,1.18-.39c.76-.57,1.48-1.19,2.21-1.79l-1,1.74-.61.66L128,31l.62-.57c1-.52,1.87-1.08,2.85-1.56,1.36-.66,2.77-1.24,4.14-1.89.24-.12.38-.42.6-.68a12.19,12.19,0,0,0-1.26-.09c-1,0-2.13-.29-3,.53-.22.21-.68.2-1,.3a.09.09,0,0,0,0-.15l-.49-.5-1.06.09c-.61.19-1.45.7-1.79.5-.89-.52-1.3,0-2,.5l.33-1.26-1-.94-3.34,3-.18-.11.28-1.05-.83,1.09.1-.59-.12,0-.76,1.1-.67-.29-.41.64-.09-.5-.74.21.16-.66-.12-.05-1.25,2.15-.1-.05L117,29l-.17,0-.52.65.23-1.69-.16-.14-2.35,2.64,0-.59-.47.69-.09,0,.42-1.42-.19-.06-.78,1-.12-.06.63-1.87-.24-.08-1.39,1.81c-1.58-.65-2.07.47-2.74,1.31l.08-.43-1.51.37-.46.65-.11-.83-.9.59.2-1.06-.21-.11-1.42,1.6,0-1.17-.27,0-.7,1.49-.22-.73-.3.69L103,30.45,102.28,32l-.18-.06.22-1.13a.89.89,0,0,0-.49.44c-.43.71-.25,1.6-1,2.29a5.09,5.09,0,0,0-.88,1.8l-.36-2.51-.34-.06c-1.11,1-1.14,2.44-1.54,3.55-.73-1.49.14-2.85,1-4.22l-.38-.12-1.59,3-.12-.05.22-1h-.09l-1.14,2.32-.3-.1.15-2.07a5.74,5.74,0,0,0-.41.93,6.36,6.36,0,0,1-.3.58c-.73-.34-.55.29-.73.55s-.3.41-.45.62l-.09-.07L94,35.24l-.19-.05-1,1.32L92.9,36a4,4,0,0,0-.71.48,6.05,6.05,0,0,0-.54.88l-.18-.56-1,1.9c0-.18,0-.26-.07-.34-.07-.26-.14-.53-.22-.79a2.37,2.37,0,0,0-.52.68c-.31.93-.55,1.88-.79,2.73-1-.23-1.13.28-1.24,1l-.18-.83-.52.88.06-2-.27,0a7.57,7.57,0,0,0-1.52,3.61c0-.52.13-1,.19-1.53.08-.79.51-1.65-.61-2.3l-.65,1.82-1-.37-1.21,2-.13-.38-.28.37-.26-.38-.16.05.2,1.39-.14,0-.49-1.2L80,44.73l-.27-.44-.92,2a7.61,7.61,0,0,0-1.07,1.05,10.13,10.13,0,0,1-.88,1.44,6.22,6.22,0,0,1,.24-1.3c.78-1.86,1.2-4,2.5-5.48,2-2.27,4.19-4.52,7.71-5.3l-1.36,3.61.08,0c.53-.76,1-1.57,1.6-2.28a12.86,12.86,0,0,1,1.7-1.49c.06-.06.27,0,.35,0,3.7-4.12,8.85-6.36,14.31-8.13,3-1,6-1.8,9-2.69a25.43,25.43,0,0,1,7.91-1.06c4.2.09,8.4.23,12.58.49a38.57,38.57,0,0,1,5.19.89c1,.2,2,.49,3,.73a1.34,1.34,0,0,1,.68,2.31A12,12,0,0,1,140,31.46c-1.63,1-3.43,1.83-5.06,2.67l-.44.82c-.17.34-1,.44-.47,1,0,0-.1.12-.17.18-1.26,1-2.23,2.4-3.93,3-1.19.41-2.36.87-3.53,1.32a14.63,14.63,0,0,0-1.41.61c-1.54.76-3.07,1.56-4.64,2.29a8,8,0,0,1-1.49.41l-3,.37.08.33,2.56-.46c-.56.2-1.12.38-1.67.59a1.78,1.78,0,0,0-.37.26,6.32,6.32,0,0,0-4.39.3l4.38-.31,2.25-.32,0,.22-6.88.76a9,9,0,0,0,5.63-.1,15.54,15.54,0,0,0,5.34-2.3c.21-.17.71,0,.94-.2a21.25,21.25,0,0,0,1.66-1.42,6.07,6.07,0,0,1-1.35,4c-1.29,1.39-2.73,2.67-4,4a3.23,3.23,0,0,0-.76,1.55A6.69,6.69,0,0,1,117,55.31l.17.14,2.57-1.54c-1,2.12-2.9,3.29-4.32,4.88l2.82-1.7a8.07,8.07,0,0,1-5,6.34l.32.11c-.07.36,0,.81-.23,1.05a21.77,21.77,0,0,1-1.89,1.68A21.71,21.71,0,0,0,109,68.39a12.55,12.55,0,0,1-5,3.32q-5.11,2.08-10.35,3.92c-2.77,1-5.6,1.8-8.45,2.58-1.52.42-3.12.58-4.67.93-2.2.5-4.39,1.06-6.57,1.6a1,1,0,0,0-.55.34l4.3-1-.38.6,5.18-1.3.09.16L78.94,81.8V82l8.56-2.09,0,.09-5.72,2.72,0,.16L88,81.53c-2,2.31-5.41,2.77-7.9,4.47,2.13.86,4,.2,5.77-.93l.15.25-2.15,1.49c.29.09.55.18.82.25,4.26,1.16,8,3.27,11.94,5.11,6.23,3,12.38,6,18.56,9,4.1,2,8.16,4.08,12.28,6,1.54.73,3.21,1.24,4.81,1.86l-.08.19a46.24,46.24,0,0,1-4.38-1.53c-5.23-2.4-10.43-4.87-15.63-7.34-4.13-2-8.25-4-12.38-5.94-.59-.28-1.17-.6-1.77-.87-.25-.11-.55-.09-.81-.18A5.93,5.93,0,0,1,96.06,93a20.38,20.38,0,0,0-2-1.32c-3.23-1.44-6.49-2.8-9.73-4.2a2.23,2.23,0,0,0-2,0,26.58,26.58,0,0,1-7.72,2.09,56.08,56.08,0,0,0-12.41,3.08c-.29.13-.57.28-1,.48l6.22,2.1A5.65,5.65,0,0,1,64.15,95c-1.12-.34-2.27-.62-3.41-.92l-.12.21.64,1.27h0l-.29.17-.21,0c-.21-.72-.79-.84-1.58-.79.08,1.61.12,3.2.24,4.79,0,.49,1.11.83,1.62.62.09,0,.27.06.4.12.47.18.94.47,1.26-.17l.3.2.15-.85.22.43.3-.64c.06.07.12.11.11.14a1.62,1.62,0,0,0-.14.46,3.7,3.7,0,0,0,.18.71c.19-.14.49-.26.54-.44.2-.86.33-1.74.44-2.33,0,.42,0,1.13.1,1.84,0,.29.32.56.48.84.31-.37,1.23-.12,1.12-.92a1.85,1.85,0,0,1,.11-.49l.85.62L68,98.51h.16l-.15,2,.35.07,1-2.6.63,1.26.52-1.65,0,.64.35-.38.22.47,1.08-2c0,.5.09,1,.13,1.51.84-1,.89-1.32.38-2l-.54.49,0-2.55,1.18.44L73.38,98h.23l.4-1.09.08,1.34.48-.58.16,1.26.38-.88c0,.39,0,.54,0,.68,0,.7,0,1.4,0,2.1a5.65,5.65,0,0,1-.43,2.23c-.63,1.06-.16,1.89.31,2.91.3-1,1-1.72.68-2.7l0,0,.66-1h0l.11,1,.13,0L77,102l.69.65,1.47-2c.06.31.11.52.15.72.15.74.43.84,1.09.45s1-.55,1.61-.85l-.34.75.18.16,1-1.07.32.3c-1,1-2,2-3,3.1-.21.25-.08.75,0,1.17a1.41,1.41,0,0,1-1.67.81,2.43,2.43,0,0,0-1.59.22,25.13,25.13,0,0,1-6.24,2.37c-1.65.51-3.34.92-4.94,1.52a17.9,17.9,0,0,1-5.48.83c-2.05.09-4.11,0-6.17,0a25.19,25.19,0,0,0-8,1.43,8.88,8.88,0,0,0-4.57,3.76,2.36,2.36,0,0,0,.06,2.72c.54.74,1.13,1.44,1.7,2.17l.27-.18-.56-.72a3.86,3.86,0,0,1,1.41-6.12,12.07,12.07,0,0,1,5.17-1.28c1.55,0,3.63,1.28,3.6,2.61,0,.57.56.72.46,1.21a7.89,7.89,0,0,0-.09,1.82,3.55,3.55,0,0,1-2.89,3.18,13.48,13.48,0,0,0-2,.37c.85,0,1.69-.1,2.53-.12,1.38,0,2.76,0,4.14-.09.46,0,.9-.12,1.35-.15.75,0,1.51-.08,2.26-.12a8.93,8.93,0,0,0,1.47-.09c1.2-.28,2.32-.79,3.51-1.17l.11.44,1.92-.45.38.44.15-.56c.7-.29,1.66.57,2.12-.49,0-.06.35-.08.36,0a7.61,7.61,0,0,1,.29.78l.33-.79a4.92,4.92,0,0,0,.81.75c.07,0,.41-.26.68-.42a1.23,1.23,0,0,0,1.38.51c.46-.06,1,.46,1.37-.1l.73.55c.51-.21,1.16-.49,1.83-.72a.56.56,0,0,1,.42.27,1.92,1.92,0,0,1-.13.64c.91.25.91.25,1.93-.44l-.31,1L79,121l.21.25,1.27-.73.11.08-1.51,1.82.07.11,1.51-.68-.35.82c1.42,0,2-1.21,3.2-1.78l-.65.7c-.2.21-.43.4-.6.62a1.69,1.69,0,0,0-.2.5l1,.16a6,6,0,0,0-.78.34,2.64,2.64,0,0,0-.42.46c.23.15.44.39.7.44a7.72,7.72,0,0,0,1.18,0l2.78.21-1.09.39,3,1.37a35.39,35.39,0,0,0,8.16,2.71c2.05.37,4.08.78,6.13,1.15a9.07,9.07,0,0,0,2.06.25c1.42-.07,2.83-.25,4.24-.39a9,9,0,0,1-2,.72,30.87,30.87,0,0,1-3.47,0v.14l.75.11a14.39,14.39,0,0,1-3.31.13,2.89,2.89,0,0,0-2.31.49c1,.17,1.79.36,2.61.44s1.83,0,2.75.06c0,0,0-.19,0-.18.67-.11,1.32-.21,2-.34s1.07-.26,1.61-.37a4.7,4.7,0,0,1,.65,0c1.37-.07,2.77,0,3.63-1.25a14.11,14.11,0,0,0,1.67-.78,4.62,4.62,0,0,0,.85-.86s0-.05,0-.07c1.2-1.39,2.4-2.78,3.71-4.13l-.88,1.71a3.94,3.94,0,0,1-.13,1.28,3.7,3.7,0,0,1-.79.9l.5.77,0,0a11.78,11.78,0,0,0-1.21.25,8.2,8.2,0,0,0-1,.42,3.65,3.65,0,0,0,.93.79,9.72,9.72,0,0,0,1.48.25c.17,0,.3.23.44.35-.18.09-.37.27-.55.27-.54,0-1.07-.13-1.61-.2a1.93,1.93,0,0,0-2.79.3l.68.18-.55.79,2.38-1-.6,1.09,1.28-.19,0,.19c.48-.15.82.59,1.4.18.13-.1.6.09.84.24s.08.37.09.42c.94.07,1.93.14,2.92.24.06,0,.08.29.12.44l1-.08.16.75a82,82,0,0,1-11.54-2.24,5.63,5.63,0,0,0-3.14.2,19.62,19.62,0,0,1-11.55-.28A55.09,55.09,0,0,1,83,125.77,28.09,28.09,0,0,0,71.39,122c-1.77-.22-3.57-.26-5.35-.41-.78-.07-1.06.16-1.12.9a15.21,15.21,0,0,1-.61,3.27,4.72,4.72,0,0,1-2.54,2.82,3.29,3.29,0,0,1-2.85.19,1.3,1.3,0,0,0-1.54.27,5.5,5.5,0,0,1-4.16,1.17,2.56,2.56,0,0,1-2.6-2.56c.09-1.3.2-2.61.28-3.91,0-.3,0-.61,0-1a11.07,11.07,0,0,1-2.61.09c-1.8-.36-2.94.38-4.12,1.41A10.65,10.65,0,0,1,39.91,127a8.18,8.18,0,0,1-4.61.24c-1.22,1.57-2.5,3.12-3.67,4.74a6.38,6.38,0,0,1-3,2.46,32,32,0,0,0-4.8,2.72c-1.07.64-2.09,1.36-3.16,2a3,3,0,0,1-1.52.33L20.79,138l-1.75.42c3.23-3.52,6.31-6.89,9.41-10.25a9.75,9.75,0,0,1,.83-.72l.11.15c-1.22,1.38-2.42,2.76-3.66,4.13-.89,1-1.81,1.95-2.72,2.93l.27.23c1.28-.39,1.45-1.93,3-2.48l-.86,2.23a7.8,7.8,0,0,0,.91-.57c.74-.59,1.46-1.21,2.19-1.82l.12.15-.94,1.53c.75,0,3-2.51,3.29-3.66l-.87.4a3,3,0,0,1,.44-.62c1.06-1,2.16-2,3.22-3.07,2.41-2.35,3.93-5.26,5.89-7.9,0-.06,0-.16.05-.23.21-.55.23-1.32.66-1.59,1-.65.54-1.86,1.38-2.55a1,1,0,0,0-.64.26c-.49.55-.78,1.35-1.86,1.16-.06,0-.16.14-.24.23-.42.47-.88.94-1.27,1.44-.9,1.16-1.77,2.34-2.66,3.51-.5.67-1,1.37-1.53,2s-1.39,1.38-2.1,2.06c0,0-.11,0-.17,0l-.3-.06c2.25-2.84,4.51-5.67,6.67-8.38-1.12.09-2.28.26-3.43.26-2.05,0-3.84-2.61-2.54-4.27a43.36,43.36,0,0,0,2.52-3.67,5.89,5.89,0,0,0,.58-1.53c.71-2.55,1.12-5.23,3.16-7.25a31,31,0,0,1,3.79-3c1.47-1.07,3-2.07,4.6-3,0,.64-.6.89-1,1.2-1.5,1.05-3.06,2.05-4.57,3.09a3.45,3.45,0,0,0-.59.8,8,8,0,0,0-1.36.85A8.83,8.83,0,0,0,36.21,105s0,.06,0,.08c-.79,1-.27,2,.12,3a3.45,3.45,0,0,1-.93,3.26,28.43,28.43,0,0,1-2.65,2.73c-.64.59-.71.89,0,1.67l.28-.4.6.46-.11-.65,5.1.39,0-.14-1.23-.2v-.11l1,0-.71-.7,1.48-.15-.13-.11,1.11-.92.54.23-.33-.53c.4-.42.82-.82,1.19-1.26a12,12,0,0,0,.81-1.23l.7.1,0-1.44.86,1-.5-2.16.13-.1.78-.09-.54-1,.9-.31c0-1,0-2,0-3.1h0l.31-.23h0l0-.34v0l.42-.12h0l1.17.47c.05-.35.11-.75.19-1.14,0-.08.18-.2.23-.19a.77.77,0,0,1,.42.25c.27.43.49.88.77,1.4a58.15,58.15,0,0,0,9.45-11l-.25,0-.07-1.37.48.22H58l0-.19L56.87,91V91h-.31c0-1.15,1.09-.61,1.7-.81-.78-1.4-1.37-1.6-3.3-1.17l.82-.55c-1-.17-1.45.46-1.87,1.19l-.12-.51c-2.69,1.49-4.26,4.15-7.44,5.37.35-.35.51-.54.71-.71,1.45-1.18,3-2.29,4.32-3.55a9,9,0,0,1,6.75-2.66,58.83,58.83,0,0,0,.39-6c0-1.48-.67-2.95-.83-4.44a18.64,18.64,0,0,1,.15-4.41L58,75.63c.89-2.06.21-4.18.38-6.27l.83,5,.29,0,.29-3.94H60L59.73,76h.45l.07-3.16.31,0A4.4,4.4,0,0,1,60.89,75a22,22,0,0,0,.18,2.31,23.22,23.22,0,0,0,.85,2.58l.2-1.51.43.56c0,.57-.11,1.14-.11,1.71,0,1,.05,2.1.08,3.14h.11l.65-1.87L63,81.86l-.18.48ZM99.18,50.36l-.21.15-.36-.09h0l-.45.38v.07l0,.09c-1.53,1.26-3.12,2.47-4.57,3.8-1.79,1.64-3.46,3.38-5.18,5.07Q86.34,61.93,84.18,64c-.12.12-.39.11-.49.14a10.53,10.53,0,0,1-.86,1.27c-1.65,1.76-3.34,3.48-5,5.23C76.7,71.81,75.54,73,74.5,74.24c-1.74,2.13-3.4,4.31-5.1,6.46-.16.21-.34.4-.52.6l.25.2a10.25,10.25,0,0,0,.89-.85c.44-.51.81-1.09,1.26-1.6,2.33-2.61,4.65-5.23,7-7.82,2.7-3,5.33-6,8.2-8.79,3.71-3.64,7.63-7.1,11.44-10.64a3.07,3.07,0,0,0,.41-.68l0-.17.4-.3.2-.15.2-.15.13-.07-.1-.05ZM53.75,99l-.22.33c0,.2,0,.44-.11.6-.57.78-1.16,1.54-1.78,2.3S50.11,104,49.39,105c-1.61,2.07-3.19,4.16-4.78,6.24-.23.31-.44.64-.66,1l.13.07.69-.64-.38,1.28.2.1,1.58-2.75c2.66-3.44,5.35-6.86,8-10.32,1.7-2.24,3.29-4.56,5-6.81.6-.79,1.39-1.45,2-2.22,1.18-1.39,2.28-2.84,3.46-4.24s2.63-3,3.92-4.52c.15-.17.14-.45.19-.69l-.34-.13a23.24,23.24,0,0,1-1.34,1.95c-1,1.16-2,2.26-3,3.39l-6.19,7a9.36,9.36,0,0,1-1,1.12,11.43,11.43,0,0,0-3.14,4.32ZM97.9,65.33,97,65.7l.07.22,4.4-1.08-.09-.29-3,.66a4.58,4.58,0,0,0-3.13.47ZM40.09,122.71l2,.45,0-.16-2.83-1.22,0,.47-.59.81-.81,1-.6.59,2,1.05.14-.19-.43-.34.52,0-.82-.64,2,.49.07-.26-1.61-.58,0-.11,1.41.32-1.37-.87,1.36.36.06-.12-.68-.47,1.6.25Zm-5.26-13.52a5.51,5.51,0,0,0-.57.62q-1.23,2-2.44,4l.1.19a2.41,2.41,0,0,0,.76-.34c1.25-1.18,1.46-3,3-4,.09-.06,0-.32,0-.48a4.89,4.89,0,0,0,.16-.74,1.16,1.16,0,0,0-.45-.12C35.16,108.54,35,108.87,34.83,109.19ZM52.4,120a30.66,30.66,0,0,0,.24-3.55c-.11-2-1.46-3-3.66-2.86l-1.39.06a7.13,7.13,0,0,0-4.13,1.45,2.84,2.84,0,0,0-.91,3.29c.46,1.22,1,2.46,2.74,2.58a10.16,10.16,0,0,0,1.65.06c1.46-.15,2.9-.35,4.19-.51a8.06,8.06,0,0,1-1.22-2.23,4.39,4.39,0,0,1,.45-2.4,1.08,1.08,0,0,1,1.52-.6,2.53,2.53,0,0,0-1.83,2.84C50.15,119.25,51.41,119.38,52.4,120Zm16.66-15.1-.19,2.59.23.09.73-1s0,.08.15.42a13.85,13.85,0,0,0,1.15-1.71,2.12,2.12,0,0,0-.22-2.4,7.31,7.31,0,0,1-.43-1.23l-1.42.79-.1-.16-.38.44-.76-.77-.33.77-.42-.7-.17,0,0,.74c-.84-.85-4.53-1.3-5.24-.6-.3-.64-.73-.77-1.19-.35l-2-.78c.53.49.24,1.64,1.51,1.58a4.63,4.63,0,0,1,.87,3.94A.4.4,0,0,0,61,107a4.58,4.58,0,0,0,1.67.28,6,6,0,0,1,1.88.26,3.46,3.46,0,0,0,.92-.1c.06.06.29.34.35.31a2.66,2.66,0,0,0,.61-.44l.26.74.25-.75.13.62.46-.62.27.4.28,0Zm-20.19,5.21.41.22,2.1-1.18.67.13,0-.66.68.2a.78.78,0,0,1,.49-.5c.28-.12.7-.12.85-.31.38-.48.93-.42,1.46-.54s1.63.21,1.9-.75c0,0,.13,0,.16,0s.36-.25.35-.36a3.52,3.52,0,0,0-.34-.85l.91.37c.45-1.93-.18-3.64-1.33-4.18-1.46,1-2.83,2-4.21,2.9-.38.25-.81.45-1.18.71-1.18.84-1.51,2.17-2.26,3.25A7.4,7.4,0,0,0,48.87,110.14Zm6.78,15.39.71.25.08-1,1,.24-.78-.87H58l.05-.43a15,15,0,0,0-1.87-.45,7.17,7.17,0,0,1-2.75-.42,1.64,1.64,0,0,0-.44-.13c0,.72,0,1.4,0,2.08a6.29,6.29,0,0,0-.08,1.61c.27,1-.35,1.55-1.05,2.08l.21.79.35-.49.06.21c.46-.08,1.19,0,1.31-.27.36-.68.89-.64,1.57-.55l-.44-.92.84.3-.52-.75,1.07-.34Zm52.47-75.08c4,.47,7.47-.85,10.88-2.42l-.09-.27Zm-4.4-3.66L104,47l8-5.95-.17-.19C109.23,43,106,44.41,103.72,46.79ZM51.44,128.2c.38-.44.85-.72.83-1-.06-1.35-.24-2.7-.38-4h-.26A10.94,10.94,0,0,0,51.44,128.2Zm59.35-72.34-9.67,1.79C104.4,57.49,107.65,57.28,110.79,55.86Zm24.46-25.69c2.09-.16,4.2-.29,6-1.35l-.1-.28Zm-64.81,58,.08.24,8.22-1.61-.07-.3ZM97.86,66.88l.07.26,6.36-1.22-.09-.33ZM61.31,85a4.52,4.52,0,0,0-.44-.41c-.21-.15-.43-.29-.65-.43a2.9,2.9,0,0,0-.25.65c-.09.58-.16,1.16-.2,1.73a11.42,11.42,0,0,0,0,1.17C60.33,86.82,59.35,85.39,61.31,85ZM100.83,64.1a7.05,7.05,0,0,0,4.88-.74Zm5-10.07,0,.68,2.37-.19v-.2ZM59.67,80.78l.31,0L60,77h-.27Zm43.75-11.2-.15-.31-3.1,1.78.16.23ZM45.55,112.16l.19.11,2.2-3.23-.23-.13ZM39,125.89l-2-1.13c0,.26,0,.6,0,.63C37.64,125.62,38.13,126.51,39,125.89Zm53.21,3.46c-.49-1.15-1-1.42-2-1ZM102.79,71l-.15-.23-2.88,1.44.19.28ZM62.45,84.43,62,83h-.07l.1,2.6h.21ZM97.1,62.66,97,62.42l-3.13.27L94,63Zm-8.83,12.5.1.29,3-.7-.07-.24Zm-29.48,9h-.13c0,.64-.12,1.28-.13,1.93s.06,1.24.09,1.86h.12Zm35.6-10.31.08.23,3.32-1.14-.09-.2Z"/><path class="cls-2" d="M123,133.83c1.76-.13,3.07.94,4.65,1.52,3-3.33,4.13-7.46,5.71-11.4a30.08,30.08,0,0,1-5.55,11.93c.73.18,1.51,0,1.5,1,0,.19,1,.39,1.51.61,2,.83,4,1.63,5.95,2.52a12.78,12.78,0,0,1,1.9,1.3.71.71,0,0,0,.14.1c.5.28,1.31.08,1.55.79l-.3.11.1.11.2-.24h.07l0-.06.07,0h.1l2.39,1.42-.09.41a.29.29,0,0,1,.12.1l.54-.22.22.32,0,0,.57.29-.06,0,.1.08v0l.35.16v0l.38.36,1.08,1.36-.14.14c-1-.62-2-1.23-3-1.88-4-2.63-8.54-4.45-12.95-6.44a7.07,7.07,0,0,1-3.56-2.71,1.39,1.39,0,0,0-.79-.47c-.92-.26-1.85-.49-2.78-.69-.5-.11-.57-.26-.18-.55Z"/><path class="cls-2" d="M72.07,63.06l-.45-7.39-1.06,4-.27,0,.9-5.08h.19l.13.55c.1,0,.19-.06.19-.09.19-2.35,2.11-4.07,2.74-6.27.27-.94.6-1.86,1-2.79.18,1.67.7,3.29.29,5a21.22,21.22,0,0,0-.21,4.08,2.08,2.08,0,0,1-.13.73c0-1.84,0-3.68,0-5.52l-.26,0-.37,1.34-.92-.35-.18,2.54h-.21c0-.15-.07-.3-.07-.3a19,19,0,0,0-1.21,3,11.63,11.63,0,0,0,0,2.83c0,1.24,0,2.49.06,3.74Z"/><path class="cls-2" d="M111.9,129.75c-.86,1.22-2.26,1.18-3.63,1.25a4.7,4.7,0,0,0-.65,0c-.54.11-1.07.26-1.61.37s-1.3.23-2,.34c0,0,0,.18,0,.18-.92,0-1.84,0-2.75-.06s-1.63-.27-2.61-.44a2.89,2.89,0,0,1,2.31-.49,14.39,14.39,0,0,0,3.31-.13l-.75-.11v-.14a30.87,30.87,0,0,0,3.47,0,9,9,0,0,0,2-.72l1.52-.25.29,0,0,0,.39.12h0l.13-.4Z"/><path class="cls-2" d="M135,116.79a13.53,13.53,0,0,1,0-1.91c.22-1.51.59-3-.18-4.5a4.54,4.54,0,0,0-.82-.87,8.37,8.37,0,0,1,4.41,0c4.6,1.14,9.17,2.36,13.75,3.56.93.24,1.85.5,2.77.75l-.06.23c-.93-.21-1.87-.38-2.78-.62-4-1.08-8-2.22-12-3.24a43.28,43.28,0,0,0-4.42-.71,2.15,2.15,0,0,0-.51,0,11,11,0,0,1-.19,7.21Z"/><path class="cls-2" d="M76.21,51.84a41.2,41.2,0,0,1-.9,8.63L76,51.82Z"/><path class="cls-2" d="M115.13,130.9l-2.38,1,.55-.79-.68-.18a1.93,1.93,0,0,1,2.79-.3Z"/><path class="cls-2" d="M75.71,103.22c-.79-.11-.6-.7-.53-1.07.25-1.32.6-2.62.92-3.93h-.28c.18.89.35,1.79.53,2.69-.22.78-.44,1.56-.67,2.34Z"/><path class="cls-2" d="M135,116.78c-.24,1.32-.46,2.65-.72,4a9.24,9.24,0,0,1-.68,2.13c0-.09-.1-.19-.08-.27.42-1.84.86-3.68,1.3-5.52a.94.94,0,0,1,.2-.29Z"/><path class="cls-2" d="M61.75,96.48s.07,0,.08,0a15.76,15.76,0,0,1,1.66,1.4c-.91-.26-2.11-.28-2-1.53l0,0h0l.28.14Z"/><path class="cls-2" d="M62.93,76.3l-.47-4.76h.22c.15,1.59.31,3.17.47,4.76Z"/><path class="cls-2" d="M29.39,127.55l-.11-.15L31,125.3l.3.06Z"/><path class="cls-2" d="M73.8,61.63,74.15,57h.08l-.35,4.67Z"/><path class="cls-2" d="M118.48,44l-2.56.46-.08-.33,3-.37Z"/><path class="cls-2" d="M76.32,100.91c.14-.48.31-1,.41-1.44s.07-.82.15-1.22a7.4,7.4,0,0,1-.57,4h0Z"/><path class="cls-2" d="M76.32,100.91l0,1.37-.66,1c.23-.78.45-1.56.67-2.34Z"/><path class="cls-2" d="M44.68,103.4h0c-.42-.26-1-.43-.75-1.06l0,0,.71.76,0,0,.21.21,0,0Z"/><path class="cls-2" d="M45,102.84v0l-.23.26,0,0-.22,0,0,0-.71-.76,0,0v-.19L44,102Z"/><path class="cls-2" d="M56.87,91l1.11.14-.2.17v0l-.48-.22Z"/><path class="cls-2" d="M45.38,102.73h0l-.39-.51.13,0Z"/><path class="cls-2" d="M110.81,129.56l-.29,0c0-.65.39-.49.79-.28l-.13.4Z"/><path class="cls-2" d="M40.34,113l.33.53-.54-.23,0-.17.17-.13Z"/><path class="cls-2" d="M145.09,145.05l-.38-.36Z"/><path class="cls-2" d="M61.13,96.43l-.36-.59.2.06.37.22,0,0,0,.19,0,0Z"/><path class="cls-2" d="M140.32,142.17l-.2.24-.1-.11.3-.11Z"/><path class="cls-2" d="M143.55,143.85l-.54.22.27-.33h0Z"/><path class="cls-2" d="M56.55,91.05h.26l-.09.22Z"/><path class="cls-2" d="M142.89,144l.09-.41.31.17h0Z"/><path class="cls-2" d="M144.7,144.66l-.35-.16Z"/><path class="cls-2" d="M144.34,144.48l-.1-.08.06,0Z"/><path class="cls-2" d="M61.34,95.79a4,4,0,0,1,.22.34l0,0-.2,0,0,0,0-.36Z"/><path class="cls-2" d="M123,133.83l-.19,0Z"/><path class="cls-2" d="M40.35,113l-.17.13v0l0-.14A.1.1,0,0,0,40.35,113Z"/><path class="cls-2" d="M40.22,113l0,.14S40.15,113,40.22,113Z"/><path class="cls-2" d="M43.5,107.88l-.13.1Z"/><path class="cls-2" d="M116.89,128.54l0,0Z"/><path class="cls-2" d="M44,102l-.11.19h0l.11-.17Z"/><path class="cls-2" d="M44.05,102l-.11.17-.28-.19v0Z"/><path class="cls-2" d="M43.66,102l.06,0h0Z"/><path class="cls-2" d="M61.75,96.48h0Z"/><path class="cls-2" d="M61.49,96.34l0,0-.22.13,0-.18,0,0,.21,0Z"/><path class="cls-2" d="M61.33,96.26l0,.18h-.17Z"/><path class="cls-2" d="M61,95.9l-.2-.06v-.06l.21,0,0,0v.17Z"/><path class="cls-2" d="M61.28,95.59h0l.08.21,0,0h-.2Z"/><path class="cls-2" d="M138.77,141.4a.71.71,0,0,1-.14-.1Z"/><path class="cls-2" d="M140.59,142.14h-.1l-.07,0A.26.26,0,0,1,140.59,142.14Z"/><path class="cls-2" d="M143.73,144.14l0,0Z"/><path class="cls-2" d="M61.47,96.35h0l0,0v-.19l0,0Z"/><path class="cls-2" d="M92.79,36.51l1-1.32.19.05-.51,1.45.09.07c.15-.21.31-.41.45-.62s0-.89.73-.55a6.36,6.36,0,0,0,.3-.58,5.74,5.74,0,0,1,.41-.93l-.15,2.07.3.1,1.14-2.32h.09l-.22,1,.12.05,1.59-3,.38.12c-.83,1.37-1.7,2.73-1,4.22.4-1.11.43-2.56,1.54-3.55l.34.06L100,35.3a5.09,5.09,0,0,1,.88-1.8c.71-.69.53-1.58,1-2.29a.89.89,0,0,1,.49-.44l-.22,1.13.18.06.67-1.51.23,1.72.3-.69.22.73.7-1.49.27,0,0,1.17,1.42-1.6.21.11-.2,1.06.9-.59.11.83.46-.65,1.51-.37-.08.43c.67-.84,1.16-2,2.74-1.31L113.18,28l.24.08L112.79,30l.12.06.78-1,.19.06-.42,1.42.09,0,.47-.69,0,.59,2.35-2.64.16.14-.23,1.69.52-.65.17,0-.26,1.15.1.05,1.25-2.15.12.05-.16.66.74-.21.09.5.41-.64.67.29.76-1.1.12,0-.1.59.83-1.09-.28,1.05.18.11,3.34-3,1,.94-.33,1.26c.75-.47,1.16-1,2-.5.34.2,1.18-.31,1.79-.5l-1.35,2-1.3,1.36a1,1,0,0,0-1.26.21,7.25,7.25,0,0,1-1.44.84l.17.27-.52-.44-.39.47-.48-.76L122,31.61l-.52-1.18c-.28.53-.48.89-.69,1.26l-.6-.29c-.53.78-.81,1.78-2.18,1.65l-.42-.95-.44,1-.13-.18-.86.5-.75-.68-.81,1.82-.15-.64L114,35.09l-.38-.53.24,2-.36-.54-.14.76L113.1,36l-1,1.81-.17,0V36.67l-.18,0-.2.82h-.08l.3-2.19L110.2,37.5l-.36-.9,0,2.07h-.23l-.11-2.12-.7,3.25-.62-2.09-.23,0-.44.75-.24-1.87-.54,2.85h0l0-3.6-.28,0-1.08,5.75.31-4.19-.13,0L105,40.51l-.12,0,.24-3.24h-.07L104.48,41h-.1l-.07-.76-.21,0-.88,3-.16-3.14-.21,0-.41,2.54h-.06l-.19-3.46-.22,0-.32,4.35-.28,0,.19-2.52h-.1l-.55,3.41-.19,0L101,42,100,44.34l-.32-.56v2.51h-.11l-.13-2.55-.1,0-.18.61c0-1.65.34-3.37-.65-4.86.14,1.36.29,2.83.43,4.3l-.31,0-.44-1.2-.18,0,.4,3-.13,0-.63-1.56L97.32,48l-.25,0,.25-1.33-.12-.06-.37.6-.32-.79L96.32,49h-.14l-.26-1.45h-.09l-.22,3h-.06l-.19-3.92c-.16,1.64.09,3.29-.4,4.88l-.36,0L95,46.31l-.34,0V48.4l-.23,0-1.39-5h-.14c.24,1.06.46,2.13.71,3.19.12.52.29,1,.42,1.54.23.88-.31,1.5-.84,2.29l-1-3.41h-.34c-.06,1.49.14,3,.17,4.5l-.26,0-1-3.14L91.07,51l-.21,0-.44-2.13L90,50.2l-.24,0a36.23,36.23,0,0,1-.81-3.77c-.14-1.28,0-2.58-.24-3.89l-.24,3.28H88l-.38-3.07A7.64,7.64,0,0,0,88,47.54q.81,2.52,1.58,5.07a1.22,1.22,0,0,1-.08.85c-1-2.19-2.06-4.34-2.95-6.56-.65-1.62,0-3.24.38-4.83l0,0,.52-.88.18.83c.11-.76.29-1.27,1.24-1,.24-.85.48-1.8.79-2.73a2.37,2.37,0,0,1,.52-.68c.08.26.15.53.22.79,0,.08,0,.16.07.34l1-1.9.18.56a6.05,6.05,0,0,1,.54-.88A4,4,0,0,1,92.9,36c-.09.06-.25.11-.26.18-.2,1.25-.39,2.51-.58,3.76a4.21,4.21,0,0,0,.42-1.36C92.59,37.91,92.69,37.21,92.79,36.51Zm13.27-1.65.18,0,.81-2.67-.38-.08ZM104,34l.3,0,.52-2-.38-.07Zm-13,8.4h.17l-.06-2.62h-.32Zm5.4-1.83h.13l.28-3.69h-.13Zm22-9.1-.44-.65L118,32l1-1-.18-.12Z"/><path class="cls-2" d="M85.76,47.62a32.76,32.76,0,0,1,2.37,7.53c-.71-.62-.36-1.78-1.59-2.33L87.29,56l-.14,0-1.26-2.75-.29,0,.59,1.94-.26.11L85,53.79l.17,2.05-.44,0-.9-7.2c-.48,3.21,1,6.66.15,10.24-.14-.35-.24-.55-.31-.75a4.81,4.81,0,0,1-.53-2.4,6.8,6.8,0,0,0-.63-2.91c.1,2.53.2,5.07.31,7.7l-.27-1.29-.25.64-.62-3.62h-.14l.24,2.38-.16,0-.52-2.81H81l.54,4.3-.16,0L81,58.77l-.22,0,.34,3.52-.19,0c-.46-2.07-1-4.14-1.38-6.22a14.94,14.94,0,0,1-.15-6.94l-.23,0L79,50.23c0-1.43.65-2.73-.18-4l0,0,.92-2,.27.44.68-1.56.49,1.2.14,0L81.09,43l.16-.05.26.38.28-.37.13.38,1.21-2,1,.37.65-1.82c1.12.65.69,1.51.61,2.3-.06.51-.18,1-.19,1.53A7.57,7.57,0,0,1,86.69,40l.27,0-.06,2,0,0c-.27.28-.74.52-.78.83-.21,1.46-.3,2.93-.43,4.4l-.34-1.36-.26,0,.34,2.13h.25Zm-4.13-.12-.07,0-.29,3.95h.07Z"/><path class="cls-2" d="M52.4,120c-1-.65-2.25-.78-2.35-1.87a2.53,2.53,0,0,1,1.83-2.84,1.08,1.08,0,0,0-1.52.6,4.39,4.39,0,0,0-.45,2.4,8.06,8.06,0,0,0,1.22,2.23c-1.29.16-2.73.36-4.19.51a10.16,10.16,0,0,1-1.65-.06c-1.76-.12-2.28-1.36-2.74-2.58a2.84,2.84,0,0,1,.91-3.29,7.13,7.13,0,0,1,4.13-1.45l1.39-.06c2.2-.12,3.55.88,3.66,2.86A30.66,30.66,0,0,1,52.4,120Z"/><path class="cls-2" d="M29.39,127.55l1.88-2.19c.06,0,.14,0,.17,0,.71-.68,1.45-1.34,2.1-2.06s1-1.32,1.53-2c.89-1.17,1.76-2.35,2.66-3.51.39-.5.85-1,1.27-1.44.08-.09.18-.24.24-.23,1.08.19,1.37-.61,1.86-1.16a1,1,0,0,1,.64-.26c-.84.69-.33,1.9-1.38,2.55-.43.27-.45,1-.66,1.59,0,.07,0,.17-.05.23-2,2.64-3.48,5.55-5.89,7.9-1.06,1-2.16,2-3.22,3.07a3,3,0,0,0-.44.62l-1.21,1.25-.22.17,0,0-.2.19c-.73.61-1.45,1.23-2.19,1.82a7.8,7.8,0,0,1-.91.57l.86-2.23c-1.53.55-1.7,2.09-3,2.48l-.27-.23c.91-1,1.83-1.94,2.72-2.93C27,130.31,28.17,128.93,29.39,127.55Z"/><path class="cls-2" d="M69.06,104.93l-1,2.75-.28,0-.27-.4-.46.62-.13-.62-.25.75-.26-.74a2.66,2.66,0,0,1-.61.44c-.06,0-.29-.25-.35-.31a3.46,3.46,0,0,1-.92.1,6,6,0,0,0-1.88-.26A4.58,4.58,0,0,1,61,107a.4.4,0,0,1-.11-.34,4.63,4.63,0,0,0-.87-3.94c-1.27.06-1-1.09-1.51-1.58l2,.78c.46-.42.89-.29,1.19.35.71-.7,4.4-.25,5.24.6l0-.74.17,0,.42.7.33-.77.76.77.38-.44.1.16,1.42-.79a7.31,7.31,0,0,0,.43,1.23,2.12,2.12,0,0,1,.22,2.4A13.85,13.85,0,0,1,70,107c-.12-.34-.17-.46-.15-.42l-.73,1-.23-.09Z"/><path class="cls-2" d="M48.87,110.14a7.4,7.4,0,0,1,.62-1.54c.75-1.08,1.08-2.41,2.26-3.25.37-.26.8-.46,1.18-.71,1.38-.94,2.75-1.89,4.21-2.9,1.15.54,1.78,2.25,1.33,4.18l-.91-.37a3.52,3.52,0,0,1,.34.85c0,.11-.22.25-.35.36s-.15,0-.16,0c-.27,1-1.24.61-1.9.75s-1.08.06-1.46.54c-.15.19-.57.19-.85.31a.78.78,0,0,0-.49.5l-.68-.2,0,.66-.67-.13-2.1,1.18Z"/><path class="cls-2" d="M98.34,51.12a3.07,3.07,0,0,1-.41.68c-3.81,3.54-7.73,7-11.44,10.64-2.87,2.82-5.5,5.84-8.2,8.79-2.36,2.59-4.68,5.21-7,7.82-.45.51-.82,1.09-1.26,1.6a10.25,10.25,0,0,1-.89.85l-.25-.2c.18-.2.36-.39.52-.6,1.7-2.15,3.36-4.33,5.1-6.46,1-1.25,2.2-2.43,3.33-3.62,1.66-1.75,3.35-3.47,5-5.23a10.53,10.53,0,0,0,.86-1.27c.1,0,.37,0,.49-.14q2.16-2.05,4.27-4.14c1.72-1.69,3.39-3.43,5.18-5.07,1.45-1.33,3-2.54,4.57-3.8Z"/><path class="cls-2" d="M53.75,99.05a11.43,11.43,0,0,1,3.14-4.32,9.36,9.36,0,0,0,1-1.12l6.19-7c1-1.13,2-2.23,3-3.39a23.24,23.24,0,0,0,1.34-1.95l.34.13c0,.24,0,.52-.19.69-1.29,1.52-2.64,3-3.92,4.52s-2.28,2.85-3.46,4.24c-.64.77-1.43,1.43-2,2.22-1.69,2.25-3.28,4.57-5,6.81-2.63,3.46-5.32,6.88-8,10.32l-1.4,1.37-.69.64-.13-.07c.22-.33.43-.66.66-1,1.59-2.08,3.17-4.17,4.78-6.24.72-.92,1.52-1.78,2.25-2.68s1.21-1.52,1.78-2.3c.11-.16.07-.4.11-.6l.21,0Z"/><path class="cls-2" d="M55.65,125.53l.67.89-1.07.34.52.75-.84-.3.44.92c-.68-.09-1.21-.13-1.57.55-.12.23-.85.19-1.31.27l-.06-.21-.35.49-.21-.79c.7-.53,1.32-1.07,1.05-2.08a6.29,6.29,0,0,1,.08-1.61c0-.68,0-1.36,0-2.08a1.64,1.64,0,0,1,.44.13,7.17,7.17,0,0,0,2.75.42,15,15,0,0,1,1.87.45l-.05.43H56.63l.78.87-1-.24-.08,1Z"/><path class="cls-2" d="M128.42,30.27l1-1.74,1.44-1.45c.34-.1.8-.09,1-.3.87-.82,2-.49,3-.53a12.19,12.19,0,0,1,1.26.09c-.22.26-.36.56-.6.68-1.37.65-2.78,1.23-4.14,1.89-1,.48-1.9,1-2.85,1.56Z"/><path class="cls-2" d="M108.12,50.45l10.79-2.69L119,48C115.59,49.6,112.11,50.92,108.12,50.45Z"/><path class="cls-2" d="M35.65,109.1c0,.16.08.42,0,.48-1.5,1-1.71,2.85-3,4a2.41,2.41,0,0,1-.76.34l-.1-.19q1.22-2,2.44-4a5.51,5.51,0,0,1,.57-.62Z"/><path class="cls-2" d="M130.88,27.08l-1.44,1.45c-.73.6-1.45,1.22-2.21,1.79a2.39,2.39,0,0,1-1.18.39l.61-.86,1.3-1.36.36-.26a2.43,2.43,0,0,0,.73-.13c.62-.37,1.21-.78,1.81-1.17A.09.09,0,0,1,130.88,27.08Z"/><path class="cls-2" d="M103.72,46.79c2.32-2.38,5.51-3.82,8.12-5.89l.17.19L104,47Z"/><path class="cls-2" d="M51.44,128.2a10.94,10.94,0,0,1,.19-5h.26c.14,1.35.32,2.7.38,4C52.29,127.48,51.82,127.76,51.44,128.2Z"/><path class="cls-2" d="M110.79,55.86c-3.14,1.42-6.39,1.63-9.67,1.79Z"/><path class="cls-2" d="M28.89,131.87l1.21-1.25.87-.4c-.27,1.15-2.54,3.67-3.29,3.66l.94-1.53.08-.34,0,0Z"/><path class="cls-2" d="M135.25,30.17l5.91-1.63.1.28C139.45,29.88,137.34,30,135.25,30.17Z"/><path class="cls-2" d="M39.18,123.43l1.37.87L39.14,124l0,.11,1.61.58-.07.26-2-.49-.8-.43.81-1Z"/><path class="cls-2" d="M70.44,88.12l8.23-1.67.07.3-8.22,1.61Z"/><path class="cls-2" d="M97.86,66.88l6.34-1.29.09.33-6.36,1.22Z"/><path class="cls-2" d="M61.31,85c-2,.35-1,1.78-1.53,2.71a11.42,11.42,0,0,1,0-1.17c0-.57.11-1.15.2-1.73a2.9,2.9,0,0,1,.25-.65c.22.14.44.28.65.43A4.52,4.52,0,0,1,61.31,85Z"/><path class="cls-2" d="M39.18,123.43l-.51-.37.59-.81.83.46,1.43.74-1.6-.25.68.47-.06.12Z"/><path class="cls-2" d="M98.42,65.21l3-.66.09.29-4.4,1.08L97,65.7l.87-.37Z"/><path class="cls-2" d="M128.32,28.23l-.36.26,1.35-2,1.06-.09Z"/><path class="cls-2" d="M100.83,64.1l4.88-.74A7.05,7.05,0,0,1,100.83,64.1Z"/><path class="cls-2" d="M62.55,78.94l.28,3.4.18-.48.27.08-.65,1.87h-.11c0-1-.08-2.09-.08-3.14,0-.57.07-1.14.11-1.71Z"/><path class="cls-2" d="M37.86,124l.8.43.82.64-.52,0,.43.34-.14.19-2-1.05Z"/><path class="cls-2" d="M40.09,122.71l-.83-.46,0-.47L42.12,123l0,.16Z"/><path class="cls-2" d="M116.43,44.88l-4.38.31a6.32,6.32,0,0,1,4.39-.3S116.43,44.88,116.43,44.88Z"/><path class="cls-2" d="M105.82,54l2.33.29v.2l-2.37.19Z"/><path class="cls-2" d="M59.67,80.78l.09-3.84H60L60,80.83Z"/><path class="cls-2" d="M103.42,69.58l-3.09,1.7-.16-.23,3.1-1.78Z"/><path class="cls-2" d="M72.12,96.41l.54-.49c.51.65.46,1-.38,2,0-.52-.08-1-.13-1.51Z"/><path class="cls-2" d="M128.32,28.23l2.05-1.8.49.5c-.6.39-1.19.8-1.81,1.17A2.43,2.43,0,0,1,128.32,28.23Z"/><path class="cls-2" d="M45.55,112.16l2.16-3.25.23.13-2.2,3.23Z"/><path class="cls-2" d="M39,125.89c-.87.62-1.36-.27-2-.5-.08,0,0-.37,0-.63Z"/><path class="cls-2" d="M92.79,36.51c-.1.7-.2,1.4-.31,2.09A4.21,4.21,0,0,1,92.06,40c.19-1.25.38-2.51.58-3.76,0-.07.17-.12.26-.18C92.87,36.18,92.83,36.35,92.79,36.51Z"/><path class="cls-2" d="M92.21,129.35l-2-1C91.22,127.93,91.72,128.2,92.21,129.35Z"/><path class="cls-2" d="M44.77,111.59l1.4-1.37c-.52.92-1.05,1.83-1.58,2.75l-.2-.1Z"/><path class="cls-2" d="M102.79,71,100,72.49l-.19-.28,2.88-1.44Z"/><path class="cls-2" d="M62.45,84.43l-.21,1.14H62l-.1-2.6H62Z"/><path class="cls-2" d="M97.1,62.66,94,63l0-.26L97,62.42Z"/><path class="cls-2" d="M85.76,47.62l-.06.48h-.25L85.11,46l.26,0,.34,1.36Z"/><path class="cls-2" d="M98.42,65.21l-.52.12-2.61.35A4.58,4.58,0,0,1,98.42,65.21Z"/><path class="cls-2" d="M35.65,109.1l-.82.09c.17-.32.33-.65.53-1a1.16,1.16,0,0,1,.45.12A4.89,4.89,0,0,1,35.65,109.1Z"/><path class="cls-2" d="M88.27,75.16l3-.65.07.24-3,.7Z"/><path class="cls-2" d="M58.79,84.14l0,3.78h-.12c0-.62-.1-1.24-.09-1.86s.09-1.29.13-1.93Z"/><path class="cls-2" d="M94.39,73.83l3.31-1.11.09.2-3.32,1.14Z"/><path class="cls-2" d="M128.42,30.27l.15.2L128,31l-.14-.11Z"/><path class="cls-2" d="M98.18,50.81l.45-.38.14.24v0l-.4.3,0,0Z"/><path class="cls-2" d="M53.75,99.05v0Z"/><path class="cls-2" d="M53.75,99v.37l-.21,0Z"/><path class="cls-2" d="M28.7,132l-.08.34-.12-.15Z"/><path class="cls-2" d="M44.68,103.4l.09-.18.22,0Z"/><path class="cls-2" d="M45,103.17l-.22,0,0,0v-.19l0,0,.21.08Z"/><path class="cls-2" d="M45,103.16l-.21-.08.23-.26Z"/><path class="cls-2" d="M61.28,95.59l-.12.18,0,0-.21,0,0,0Z"/><path class="cls-2" d="M58,91.32h-.18v0h.09Z"/><path class="cls-2" d="M58,91.32l-.08,0h-.09l.2-.17Z"/><path class="cls-2" d="M98.34,51.12,98.2,51l0-.09.21.09,0,0Z"/><path class="cls-2" d="M98.38,51l-.21-.09v-.07Z"/><path class="cls-2" d="M99,50.5l-.2.15v0l-.16-.25.36.09Z"/><path class="cls-2" d="M98.61,50.42l.16.25-.14-.24Z"/><path class="cls-2" d="M99.16,50.35l-.2.15h0l.21-.15Z"/><path class="cls-2" d="M99.18,50.36v-.13l.1.05-.13.07Z"/><path class="cls-2" d="M142.89,144l.39-.23-.27.33A.29.29,0,0,0,142.89,144Z"/><path class="cls-2" d="M110.81,129.56l.37.09h0l-.39-.12Z"/><path class="cls-2" d="M110.79,129.53l.39.12Z"/><path class="cls-2" d="M43.91,102.31l.71.76Z"/><path class="cls-2" d="M44.81,103.06v.19l-.21-.21Z"/><path class="cls-2" d="M61.16,95.77h.2l0,.36L61,95.9v0l.22-.18Z"/><path class="cls-2" d="M61.52,96.11v.19l-.21,0,0-.19Z"/><path class="cls-2" d="M61.18,95.75l-.22.18v-.2Z"/><path class="cls-2" d="M106.06,34.86l.61-2.73.38.08-.81,2.67Z"/><path class="cls-2" d="M104,34l.44-2.05.38.07-.52,2Z"/><path class="cls-2" d="M91,42.43l-.21-2.62h.32l.06,2.62Z"/><ellipse class="cls-2" cx="96.59" cy="38.76" rx="2.61" ry="0.09" transform="translate(50.81 132.22) rotate(-85.77)"/><path class="cls-2" d="M118.35,31.5l.45-.61L119,31l-1,1-.1-1.18Z"/><path class="cls-2" d="M81.63,47.5l-.29,4h-.07l.29-3.95Z"/><path class="cls-2" d="M28.89,131.87l-.22.17Z"/><text class="cls-3" transform="translate(194.49 151.89) scale(0.98 1)">M<tspan class="cls-4" x="142.72" y="0">astery</tspan></text><text class="cls-5" transform="translate(753.86 156.6) scale(0.94 1)"><tspan class="cls-6">P</tspan><tspan x="91.78" y="0">ath</tspan></text></g></g></svg>