<svg xmlns="http://www.w3.org/2000/svg" viewBox="0 0 1366 200"><defs><style>.cls-1{fill:red;}.cls-2{fill:#fff;}</style></defs><g id="Layer_2" data-name="Layer 2"><g id="Layer_2-2" data-name="Layer 2"><path d="M.5,199.5V.63A2869.3,2869.3,0,0,0,332,58.94,2931.21,2931.21,0,0,0,667.63,78.16a3136.7,3136.7,0,0,0,347-19.63A3497.85,3497.85,0,0,0,1365.5.62V199.5Z"/><path d="M1365,1.24V199H1V1.27A2872.74,2872.74,0,0,0,331.92,59.44,2932.3,2932.3,0,0,0,667.64,78.66,3135.16,3135.16,0,0,0,1014.7,59,3495.18,3495.18,0,0,0,1365,1.24M1366,0C1130.15,51.2,897.56,77.66,667.64,77.66,442.65,77.66,220.22,52.31,0,0V200H1366V0Z"/><path class="cls-1" d="M37.66,48.35l.72-3.28c.34-1.4,1.11-2,2.32-1.7s1.65,1.17,1.31,2.74q-1.21,5.6-3.14,7.49c-1.74,1.7-4.12,2.24-7.11,1.59q-4.14-.9-5.31-3.9-.87-2.17.14-6.73l2.73-12.3a1,1,0,0,0-.77-1.3l-1.68-.37a1.93,1.93,0,0,1-1.28-.84,1.77,1.77,0,0,1-.26-1.43,1.81,1.81,0,0,1,.82-1.16,1.68,1.68,0,0,1,1.34-.3l2,.44c.59.13,1-.13,1.09-.78l1.17-5.28a1.78,1.78,0,0,1,2.42-1.51,1.72,1.72,0,0,1,1.43,2.35l-1.2,5.49c-.11.51.14.83.76,1l5.62,1.21c1.3.28,1.83,1,1.57,2.21s-1.11,1.75-2.53,1.45l-5.67-1.23c-.49-.1-.8.21-1,.92q-1.38,6.32-2.78,12.61c-.79,3.59,0,5.65,2.45,6.17S36.92,51.24,37.66,48.35Z"/><path class="cls-1" d="M57.6,25.38l-2.31,10a14.46,14.46,0,0,1,4.35-1.91,10.34,10.34,0,0,1,4.2.09,10.29,10.29,0,0,1,6.64,4,8.85,8.85,0,0,1,1.36,7.18c-.59,2.87-1.17,5.73-1.76,8.59-.41,2-.63,3.14-.63,3.35-.22,1.75.06,2.69.83,2.85a4,4,0,0,0,1.26-.05,3.76,3.76,0,0,1,.85.1c1.29.25,1.81,1,1.58,2.13s-1.2,1.58-2.87,1.25c-.45-.09-1.11-.28-2-.55a31.24,31.24,0,0,0-3.5-1A17.11,17.11,0,0,0,63.53,61c-1.51-.09-2.44-.17-2.78-.24a2.41,2.41,0,0,1-1.46-.86A1.78,1.78,0,0,1,59,58.45a1.45,1.45,0,0,1,.79-1,1.92,1.92,0,0,1,1.37-.2,4.45,4.45,0,0,1,1.3.53,3,3,0,0,0,.86.34c1,.21,1.81-.8,2.31-3,.08-.41.28-1.21.6-2.39.15-.74.31-1.47.46-2.21l.57-2.78c.72-3.49.85-5.91.41-7.25q-1-3-4.76-3.76c-2.73-.56-4.92,0-6.55,1.54q-1.7,1.64-2.64,5.83l-.78,3.7a4.73,4.73,0,0,1-.43,1c-.09.45-.16.77-.2,1-.42,2-.64,3.08-.67,3.4-.18,1.71.16,2.66,1,2.84a4.9,4.9,0,0,0,1.25,0,4.21,4.21,0,0,1,1.21,0,1.51,1.51,0,0,1,1.37,2c-.26,1.23-1.16,1.69-2.71,1.37a22,22,0,0,1-2.17-.61c-1.3-.41-2.43-.72-3.37-.92-.6-.12-1.43-.24-2.5-.36q-2.14-.24-2.73-.36c-1.43-.3-2-1.09-1.73-2.36.22-1.05,1-1.44,2.35-1.16a2.72,2.72,0,0,1,1,.36,6.27,6.27,0,0,0,1.23.48q.84.18,1.47-1.32A46.55,46.55,0,0,0,49,46.78c.65-3.06,1.31-6.13,2-9.19a89.85,89.85,0,0,0,1.75-9.79q.12-2.1-1-2.34a6,6,0,0,0-1.11-.07,5.89,5.89,0,0,1-1.17-.09,1.53,1.53,0,0,1-1.4-2,1.6,1.6,0,0,1,.88-1.1,2.36,2.36,0,0,1,1.6-.2c.17,0,.74.21,1.72.53.63.2,1.33.38,2.09.54a8.27,8.27,0,0,0,1.31.14,9,9,0,0,1,1.21.12c.79.17,1.07.82.83,1.95Z"/><path class="cls-1" d="M102.46,53a6.38,6.38,0,0,1-.72,2.35c-.23.26-.76.31-1.6.15Q91.85,54,83.55,52.35a1.42,1.42,0,0,0-.92,0,.71.71,0,0,0-.33.55,9.31,9.31,0,0,0,1.06,6.89,8,8,0,0,0,9.81,3.29,5.77,5.77,0,0,0,3.1-2.67c.26-.47.51-.94.76-1.41a1.68,1.68,0,0,1,2-.91,1.75,1.75,0,0,1,1.56,2.33c-.44,2.23-2,4-4.62,5.3a13,13,0,0,1-8.37,1.09,11.26,11.26,0,0,1-8-5.33Q77,57.22,78.27,51.1a15.3,15.3,0,0,1,5.48-9.52,11.59,11.59,0,0,1,9.69-2.17,11,11,0,0,1,7.43,4.78A11.51,11.51,0,0,1,102.46,53Zm-18.65-5c-.1.48.23.79,1,.94l12.45,2.41c.73.14,1.14,0,1.24-.52a6.46,6.46,0,0,0-1.17-5.13,6.92,6.92,0,0,0-4.5-3,8,8,0,0,0-5.71,1.06A6.23,6.23,0,0,0,83.81,48.07Z"/><path class="cls-1" d="M129.06,48.47l-.3,1.65a9.56,9.56,0,0,1,8.71-2.62,10.59,10.59,0,0,1,7.67,5c1.64,2.73,2.12,6.13,1.41,10.2-.77,4.37-2.48,7.68-5.13,9.9A11.13,11.13,0,0,1,131.89,75,9.56,9.56,0,0,1,125,70.52c-.26,1.43-.52,2.86-.79,4.29a18.49,18.49,0,0,0-.36,2.54c0,1.11.43,1.73,1.24,1.88a7,7,0,0,0,1.14,0,6,6,0,0,1,1.13,0,1.51,1.51,0,0,1,1.38,2q-.32,1.71-2.52,1.32a22.38,22.38,0,0,1-2.33-.63,30.55,30.55,0,0,0-3.45-.78,17.65,17.65,0,0,0-2.13-.27,26.13,26.13,0,0,1-2.83-.25,2.25,2.25,0,0,1-1.43-.81,1.61,1.61,0,0,1-.39-1.36c.2-1.08.89-1.51,2.08-1.3a6.2,6.2,0,0,1,1,.31A7.23,7.23,0,0,0,118,78a1.19,1.19,0,0,0,1.41-.79,37.22,37.22,0,0,0,1.33-5.55q1.84-10,3.67-19.93c.25-1.58-.05-2.46-.91-2.61a5,5,0,0,0-1.14,0,5.45,5.45,0,0,1-1.2,0c-1.28-.23-1.81-.92-1.6-2.05s1.07-1.51,2.6-1.24c.38.07.79.17,1.24.28.86.23,1.49.38,1.91.45s.77.11,1.37.17,1,.1,1.32.15C128.88,47,129.23,47.51,129.06,48.47Zm-.36,6.44a24.45,24.45,0,0,0-1.42,4.81,6.15,6.15,0,0,1-.19.77c-.06.31-.1.55-.13.72a16,16,0,0,0-.34,5.14,6.16,6.16,0,0,0,1.77,3.22,7.85,7.85,0,0,0,10.37.29c1.71-1.57,2.85-4,3.44-7.37,1.22-6.89-.66-10.76-5.6-11.62a7.32,7.32,0,0,0-4.74.71A6.64,6.64,0,0,0,128.7,54.91Z"/><path class="cls-1" d="M160.32,53.82l-.24,1.42a9.35,9.35,0,0,1,13.52.42A6.8,6.8,0,0,1,175,61.28a5.73,5.73,0,0,1-1.76,3.52,3.77,3.77,0,0,1-3.29.93,3.08,3.08,0,0,1-1.93-1,2.29,2.29,0,0,1-.55-1.9,2.13,2.13,0,0,1,.88-1.37A2,2,0,0,1,170,61a3.64,3.64,0,0,1,.66.26,2.71,2.71,0,0,0,.5-1.09,3.15,3.15,0,0,0-.92-2.75A5.33,5.33,0,0,0,167,55.85,5.39,5.39,0,0,0,161,58.58a20.56,20.56,0,0,0-2,6.59c-.19,1.13-.39,2.27-.58,3.41-.39,2.31-.6,3.61-.61,3.89-.16,2,.22,3.07,1.13,3.22a6.37,6.37,0,0,0,1.46.06,4.25,4.25,0,0,1,1,0,1.48,1.48,0,0,1,1.41,1.91c-.2,1.19-1,1.67-2.46,1.43l-.21,0a20.85,20.85,0,0,1-2.37-.57c-1-.3-1.84-.49-2.36-.58-1.41-.23-2.52-.38-3.34-.45l-3-.23c-1.44-.25-2-1-1.84-2.18s1-1.49,2.3-1.26a4.15,4.15,0,0,1,.79.19l.77.29a5.28,5.28,0,0,0,.73.23c.88.14,1.5-.57,1.85-2.15l.45-2.63Q155.08,63.85,156,58c.25-2.06-.1-3.16-1.05-3.32a5.87,5.87,0,0,0-1.18,0,5.8,5.8,0,0,1-1.17,0,1.51,1.51,0,0,1-1.45-1.94c.21-1.21,1.06-1.69,2.56-1.43a12.76,12.76,0,0,1,1.55.39,15,15,0,0,0,1.55.39,11,11,0,0,0,1.38.1,3.58,3.58,0,0,1,1,0Q160.56,52.33,160.32,53.82Z"/><path class="cls-1" d="M186.2,83.91a11.33,11.33,0,0,1-8.29-5.14q-2.73-4.27-1.69-10.6t5-9.55a12.94,12.94,0,0,1,18,2.68Q202,65.49,201,71.81t-5,9.65A11.86,11.86,0,0,1,186.2,83.91Zm4.11-24.23a7.26,7.26,0,0,0-6.18,1.65,12.09,12.09,0,0,0-3.48,6.84c0,.23-.07.45-.11.68-.52,3.25-.24,5.9.86,8a6.93,6.93,0,0,0,5.4,3.68,7.42,7.42,0,0,0,6.5-1.86q2.64-2.43,3.4-7.37Q198.31,60.91,190.31,59.68Z"/><path class="cls-1" d="M215,53.48q-1.09,4.22-2,10.11A10.63,10.63,0,0,1,216.86,61a9.79,9.79,0,0,1,4.51-.27,10.62,10.62,0,0,1,7.88,4.81q2.61,4.08,1.76,10.1c-.63,4.4-2.23,7.76-4.83,10.07a11.29,11.29,0,0,1-9.54,2.67q-5.47-.78-7.32-5.13c0,1,0,1.59,0,1.69a1.68,1.68,0,0,1-2.14,1.6c-1.24-.18-1.73-1.14-1.46-2.87.07-.48.12-.85.16-1.09.12-.79.25-1.64.39-2.54l.87-4c.26-1.75.53-3.49.79-5.24Q208.94,63.93,210,57a6.93,6.93,0,0,0,0-2.65,1.21,1.21,0,0,0-1.08-.85c-.1,0-.57,0-1.39,0a6.19,6.19,0,0,1-1,0c-1.18-.17-1.7-.81-1.53-1.92s1-1.61,2.36-1.4a10.22,10.22,0,0,1,1,.2l1.23.34a11.6,11.6,0,0,0,1.35.3,11.35,11.35,0,0,0,1.65.09,11,11,0,0,1,1.6.07c.76.11,1.08.65.94,1.61Zm-2.38,15a23.08,23.08,0,0,0-1.07,4.62c-.51,3.42-.58,5.82-.2,7.18q1.1,4,5.74,4.69a7.08,7.08,0,0,0,6.28-2,12.29,12.29,0,0,0,3.26-7.31,12.77,12.77,0,0,0-.95-8,6.62,6.62,0,0,0-5.2-3.56,7.36,7.36,0,0,0-4.74.89A6.69,6.69,0,0,0,212.62,68.47Z"/><path class="cls-1" d="M244.48,69.18l-2.22,16.15c-.21,1.77.15,2.72,1.09,2.84a6.78,6.78,0,0,0,1.38-.09,7,7,0,0,1,.87,0,1.57,1.57,0,0,1,1.54,2c-.16,1.15-1,1.63-2.42,1.44-.56-.08-1.46-.27-2.68-.57a26,26,0,0,0-2.84-.58,23.7,23.7,0,0,0-2.58-.14,23.31,23.31,0,0,1-2.53-.12l-.26,0c-1.49-.2-2.14-.92-2-2.17.16-1.07.84-1.53,2.06-1.37l.38.06a2.29,2.29,0,0,0,.47.13,12.35,12.35,0,0,0,1.52.5,1.13,1.13,0,0,0,1.32-.64,21.9,21.9,0,0,0,.88-4.17c.19-1.21.38-2.43.56-3.64.38-2.7.75-5.39,1.13-8.09.42-3.1.85-6.19,1.27-9.29a16,16,0,0,0,.13-2.11,1.46,1.46,0,0,0-1.31-1.39,14,14,0,0,0-1.4,0,5.75,5.75,0,0,1-1,0c-1.19-.16-1.71-.8-1.56-1.91s.94-1.62,2.34-1.43a6.88,6.88,0,0,1,1,.19l1.24.32a10.65,10.65,0,0,0,1.4.29,11.32,11.32,0,0,0,1.6.06,11.6,11.6,0,0,1,1.6,0c.81.11,1.15.66,1,1.67a4.54,4.54,0,0,1-.16.77Q245.48,61.86,244.48,69.18Z"/><path class="cls-1" d="M275.79,79.63a6.51,6.51,0,0,1-.57,2.39c-.21.28-.75.36-1.6.26q-8.46-1-16.92-2.08a1.55,1.55,0,0,0-.93.07.75.75,0,0,0-.29.57A9.24,9.24,0,0,0,257,87.65,7.79,7.79,0,0,0,262.65,91a7.88,7.88,0,0,0,4.46-.73,5.86,5.86,0,0,0,2.94-2.86c.22-.49.45-1,.67-1.46a1.68,1.68,0,0,1,1.92-1,1.75,1.75,0,0,1,1.72,2.22q-.42,3.39-4.29,5.59a13.17,13.17,0,0,1-8.36,1.65,11.36,11.36,0,0,1-8.43-4.79q-2.81-4.08-2-10.28a15.22,15.22,0,0,1,4.87-9.85,11.78,11.78,0,0,1,9.62-2.82,11.09,11.09,0,0,1,7.79,4.28A11.43,11.43,0,0,1,275.79,79.63Zm-19.12-3.72c-.06.49.3.78,1.08.88l12.69,1.57c.75.09,1.15-.11,1.21-.6a6.4,6.4,0,0,0-1.52-5,7,7,0,0,0-4.72-2.65,8.23,8.23,0,0,0-5.68,1.44A6.26,6.26,0,0,0,256.67,75.91Z"/><path class="cls-1" d="M288.81,71.85l-.18,1.51a12.77,12.77,0,0,1,4-2.69,9.53,9.53,0,0,1,4.35-.39c3.47.39,5.86,2,7.2,4.81A9.58,9.58,0,0,1,313.05,72a11.55,11.55,0,0,1,5.29,1.82,7.58,7.58,0,0,1,3.25,4.35,15.84,15.84,0,0,1,.11,5.51c-.18,1.69-.37,3.38-.55,5.08l-.42,3.92c-.16,1.43-.24,2.3-.23,2.62,0,1.27.43,2,1.17,2a5,5,0,0,0,1.14-.07A5.72,5.72,0,0,1,324,97.2c1.24.12,1.8.71,1.69,1.75-.13,1.22-.91,1.76-2.35,1.62-.53-.06-1.34-.2-2.42-.43s-1.91-.38-2.48-.44-1.5-.09-2.68-.09a26.24,26.24,0,0,1-2.68-.09c-1.5-.15-2.19-.84-2-2.06.12-1,.75-1.51,1.89-1.39.15,0,.5.09,1.06.22a3.08,3.08,0,0,0,.85.19,1.1,1.1,0,0,0,1.25-.77,24.59,24.59,0,0,0,.79-4.4c.11-1.06.23-2.12.35-3.19s.25-2.29.37-3.44a18,18,0,0,0,0-5.3,4.74,4.74,0,0,0-1.82-2.8,6.67,6.67,0,0,0-3.39-1.31q-3.77-.39-5.54,2-1.4,1.92-2,7L304.42,88A45.71,45.71,0,0,0,304,94.1c.07.84.44,1.29,1.12,1.36a7.34,7.34,0,0,0,.95,0,6.13,6.13,0,0,1,1,0,1.81,1.81,0,0,1,1.21.62,1.66,1.66,0,0,1,.37,1.27c-.13,1.13-1,1.6-2.72,1.42a19,19,0,0,1-2.36-.46,21.65,21.65,0,0,0-2.36-.47,16.82,16.82,0,0,0-2.5-.06,15.11,15.11,0,0,1-2.38,0c-1.47-.16-2.13-.83-2-2a1.45,1.45,0,0,1,1.8-1.44,2.06,2.06,0,0,1,.89.25,4.69,4.69,0,0,0,1.1.34c.86.09,1.41-.75,1.66-2.53.14-.81.29-1.63.44-2.44s.18-1.52.26-2.26.12-1,.12-1c.17-1.45.33-2.9.5-4.35q.53-4.56-.52-6.48t-4.23-2.28a6.39,6.39,0,0,0-5.67,1.92c-1.19,1.24-2,3.56-2.39,7l-.84,7c-.17,1.4-.25,2.22-.25,2.47q0,1.8,1,1.92a4.78,4.78,0,0,0,1.16-.17.89.89,0,0,0,.33,0l.38,0c1.39.15,2,.81,1.88,2s-1,1.58-2.61,1.4a22.11,22.11,0,0,1-2.24-.41,27.78,27.78,0,0,0-3.08-.57c-.42,0-1.22-.08-2.37-.11-1.55,0-2.49-.08-2.81-.12-1.43-.17-2.07-.84-1.92-2s.89-1.54,2.27-1.37l.33,0a1.23,1.23,0,0,0,.32.1l1.33.41a.3.3,0,0,0,.21.08q1.47.18,1.89-2.37c.12-1,.25-2,.37-3,.32-2.66.65-5.31,1-8a36.46,36.46,0,0,0,.43-5.55,1.23,1.23,0,0,0-1.17-1.25,11.86,11.86,0,0,0-1.52.09,4.05,4.05,0,0,1-.86,0c-1.31-.15-1.89-.78-1.76-1.89s.94-1.69,2.39-1.52c.39,0,.92.14,1.58.29a17.12,17.12,0,0,0,1.74.31l.58.06.37,0,1.3-.07.16,0C288.57,70.29,288.93,70.84,288.81,71.85Z"/><path class="cls-1" d="M351.28,87.71l-.66,6.79c-.17,1.74-.26,2.77-.25,3.09,0,1.58.43,2.41,1.22,2.48a7.83,7.83,0,0,0,1.37-.14,2.3,2.3,0,0,1,.82,0c1.37.12,2,.75,1.88,1.9a1.56,1.56,0,0,1-.79,1.2,2.81,2.81,0,0,1-1.76.37,21.84,21.84,0,0,1-2.6-.47,21.49,21.49,0,0,0-2.6-.47,26.26,26.26,0,0,0-3.15-.08c-1.43.05-2.37.05-2.84,0q-2.16-.21-2-2c.12-1.15.79-1.67,2-1.55a7.43,7.43,0,0,1,1.26.27,7.68,7.68,0,0,0,1.26.28c.87.07,1.5-1,1.91-3.2,0-.14.16-1.66.44-4.55.15-1.43.29-2.86.43-4.28.28-2.89.43-4.41.44-4.55,0-2.21-.4-3.36-1.3-3.44a5.81,5.81,0,0,0-1.23.07,5.51,5.51,0,0,1-1.17.08c-1.3-.12-1.89-.74-1.78-1.85s1-1.71,2.53-1.56a13.65,13.65,0,0,1,1.43.18c1.13.25,1.85.38,2.17.41a9.77,9.77,0,0,0,1.32,0,9.78,9.78,0,0,1,1.32,0c1,.09,1.48.81,1.35,2.17,0,.14,0,.35-.1.63a4.47,4.47,0,0,0-.1.62c-.06.28-.19,1.35-.4,3.23C351.57,84.75,351.42,86.21,351.28,87.71Zm-1.47-13.94a2.93,2.93,0,0,1-2-1.06,2.81,2.81,0,0,1-.68-2.14,2.77,2.77,0,0,1,1.08-2,3.08,3.08,0,0,1,4.2.38,2.75,2.75,0,0,1,.69,2.12,2.83,2.83,0,0,1-1.08,2A2.92,2.92,0,0,1,349.81,73.77Z"/><path class="cls-1" d="M371.55,77.48a9.6,9.6,0,0,1,5.81,2.32l0-.21c.11-1.29.74-1.89,1.88-1.8s1.71.7,1.62,1.81c0,.21-.09.73-.22,1.56a12.58,12.58,0,0,0-.36,2.08,17.19,17.19,0,0,0,0,1.84c0,.81,0,1.43,0,1.85-.12,1.32-.76,1.94-1.92,1.85a1.54,1.54,0,0,1-1.6-1.82l.15-1.72a3.3,3.3,0,0,0-1.62-2.84,7.68,7.68,0,0,0-4.1-1.47,6.81,6.81,0,0,0-4.23.89A3.75,3.75,0,0,0,365,84.74c-.2,2.23,1.25,3.69,4.36,4.36l3.08.68c6,1.29,8.85,4,8.5,8.1a7.47,7.47,0,0,1-3.49,5.86,12.23,12.23,0,0,1-8,1.71,12.44,12.44,0,0,1-7.52-3.11c0,.35-.06.68-.09,1a1.66,1.66,0,0,1-2,1.72c-1.34-.11-1.93-.88-1.8-2.31a25.19,25.19,0,0,0,.58-2.69,10.36,10.36,0,0,0,.25-1.46,12.53,12.53,0,0,0,0-2.37,9,9,0,0,1-.05-1.74q.17-1.83,1.89-1.68c.75.06,1.21.28,1.37.64a7.6,7.6,0,0,1,.09,2.8,4.3,4.3,0,0,0,2.09,3.87,11.59,11.59,0,0,0,5.91,1.91,7.11,7.11,0,0,0,4.48-1,4,4,0,0,0,2-3.15c.2-2.38-1.62-3.9-5.45-4.6A23.5,23.5,0,0,1,363,90.5q-2.76-1.78-2.4-5.66A7.35,7.35,0,0,1,364,79.15,11.55,11.55,0,0,1,371.55,77.48Z"/><path class="cls-1" d="M403,108a3.19,3.19,0,0,1-2.3-1.14,3.1,3.1,0,0,1-.79-2.39,3.2,3.2,0,0,1,1.16-2.26,3.4,3.4,0,0,1,4.75.32,3.15,3.15,0,0,1,.79,2.4,3.18,3.18,0,0,1-1.15,2.26A3.32,3.32,0,0,1,403,108Z"/><path class="cls-1" d="M417.83,109a3.24,3.24,0,0,1-2.31-1.12,3.16,3.16,0,0,1-.8-2.4,3.23,3.23,0,0,1,1.14-2.26,3.28,3.28,0,0,1,2.46-.82,3.24,3.24,0,0,1,2.31,1.12,3.12,3.12,0,0,1,.8,2.39,3.18,3.18,0,0,1-1.14,2.27A3.32,3.32,0,0,1,417.83,109Z"/><path class="cls-1" d="M432.64,109.85a3.23,3.23,0,0,1-2.32-1.1,3.14,3.14,0,0,1-.81-2.39,3.22,3.22,0,0,1,1.13-2.28,3.34,3.34,0,0,1,2.45-.83,3.27,3.27,0,0,1,2.32,1.11,3.13,3.13,0,0,1,.82,2.38A3.22,3.22,0,0,1,435.1,109,3.29,3.29,0,0,1,432.64,109.85Z"/><path class="cls-2" d="M41.46,87.5c4.29,1.73,8.75,3.12,12.81,5.28A68.41,68.41,0,0,1,66.83,101c5.61,4.85,7.2,11.35,5.26,18.53-1.73,6.36-5.48,11.5-10.44,16.51-2.12-2.94-4.13-5.72-6.15-8.49-2.2-3-2.78-3-4.26.35q-10.05,22.48-20.06,45c-1.31,2.93-.84,3.62,2.38,3.29q24.63-2.52,49.25-5.08c3.28-.34,3.51-.92,1.54-3.67-1.66-2.31-3.22-4.72-5-6.89-1.45-1.72-1.38-2.89.09-4.66,5.35-6.43,10.13-13.26,13.16-21.15,5.7-14.78,2.18-26.37-11-35.09C69.44,91.66,55.65,88.88,41.46,87.5Z"/></g></g></svg>